<!-- icon666.com - MILLIONS vector ICONS FREE --><svg id="Layer_2" enable-background="new 0 0 512 512" viewBox="0 0 512 512" xmlns="http://www.w3.org/2000/svg"><g><g><g><path d="m256 502 102.901-67.669c50.621-33.288 81.099-89.809 81.099-150.394v-163.937l-184-48-184 48v163.937c0 60.585 30.478 117.106 81.099 150.395z" fill="#edeff1"></path></g><g><path d="m169.583 409.266c-42.318-27.829-67.583-74.681-67.583-125.329v-140.759l154-40.174 154 40.174v140.759c0 50.648-25.265 97.5-67.583 125.329l-86.417 56.829z" fill="#d3d3d3"></path></g><g><path d="m502 320h-150v-92h150l-20 46z" fill="#80d6fb"></path></g><g><path d="m10 320h150v-92h-150l20 46z" fill="#80d6fb"></path></g><g><g><circle cx="256" cy="274" fill="#6e83b7" r="110"></circle></g><g><path d="m366 274c0 3.796-.192 7.548-.568 11.246-1.869 18.378-8.259 35.419-18.043 49.992-16.223 24.164-41.778 41.541-71.504 46.969-6.452 1.176-13.097 1.793-19.885 1.793s-13.433-.617-19.885-1.793c-29.727-5.428-55.282-22.805-71.504-46.969-9.784-14.573-16.174-31.614-18.043-49.992-.376-3.698-.568-7.45-.568-11.246 0-26.847 9.618-51.445 25.595-70.543 11.143-13.321 25.385-23.963 41.617-30.822 13.151-5.559 27.612-8.635 42.788-8.635s29.637 3.076 42.788 8.635c16.232 6.859 30.474 17.502 41.617 30.822 15.977 19.098 25.595 43.696 25.595 70.543z" fill="#6e83b7"></path></g><g><circle cx="256" cy="274" fill="#edeff1" r="102.846"></circle></g><path d="m297.502 271.565 32.84-12.361 35.09 26.042c.376-3.698.568-7.45.568-11.246 0-26.847-9.618-51.445-25.595-70.543l-15.021 42.655-32.084 12.076-30.3-22.346v-36.814l35.788-26.393c-13.151-5.559-27.612-8.635-42.788-8.635s-29.637 3.076-42.788 8.635l35.788 26.393v36.814l-30.3 22.346-32.084-12.076-15.021-42.655c-15.977 19.098-25.595 43.696-25.595 70.543 0 3.796.192 7.548.568 11.246l35.09-26.042 32.84 12.361 11.361 35.978-17.552 25.316-43.696 2.378c16.223 24.164 41.778 41.541 71.504 46.969l-15.648-42.317 16.851-24.305h37.362l16.851 24.305-15.648 42.317c29.727-5.429 55.282-22.805 71.504-46.969l-43.696-2.378-17.552-25.316z" fill="#6e83b7"></path></g><g><path d="m196 392h120v14h-120z" fill="#6e83b7"></path></g><g><path d="m216 415h80v14h-80z" fill="#6e83b7"></path></g></g><g><path d="m256 10 18.11 36.694 40.494 5.884-29.302 28.563 6.917 40.33-36.219-19.041-36.219 19.041 6.917-40.33-29.302-28.563 40.494-5.884z" fill="#ffe352"></path></g><g><path d="m368.832 56 13.236 26.819 29.596 4.3-21.416 20.876 5.056 29.476-26.472-13.917-26.472 13.917 5.056-29.476-21.416-20.876 29.596-4.3z" fill="#ffe352"></path></g><g><path d="m143.168 56-13.236 26.819-29.596 4.3 21.416 20.876-5.056 29.476 26.472-13.917 26.472 13.917-5.056-29.476 21.416-20.876-29.596-4.3z" fill="#ffe352"></path></g></g></svg>